<svg id="visual" viewBox="0 0 100 200" width="100" height="200" xmlns="http://www.w3.org/2000/svg" xmlns:xlink="http://www.w3.org/1999/xlink" version="1.1"><path d="M43 0L39.8 4.2C36.7 8.3 30.3 16.7 27.7 25C25 33.3 26 41.7 29.3 50C32.7 58.3 38.3 66.7 40.3 75C42.3 83.3 40.7 91.7 40.3 100C40 108.3 41 116.7 39 125C37 133.3 32 141.7 29.8 150C27.7 158.3 28.3 166.7 29.3 175C30.3 183.3 31.7 191.7 32.3 195.8L33 200L0 200L0 195.8C0 191.7 0 183.3 0 175C0 166.7 0 158.3 0 150C0 141.7 0 133.3 0 125C0 116.7 0 108.3 0 100C0 91.7 0 83.3 0 75C0 66.7 0 58.3 0 50C0 41.7 0 33.3 0 25C0 16.7 0 8.3 0 4.2L0 0Z" fill="#F2EAD3" stroke-linecap="round" stroke-linejoin="miter"></path></svg>