<svg id="visual" viewBox="0 0 900 100" width="900" height="100" xmlns="http://www.w3.org/2000/svg" xmlns:xlink="http://www.w3.org/1999/xlink" version="1.1"><path d="M0 24L18.8 25.5C37.7 27 75.3 30 112.8 32.5C150.3 35 187.7 37 225.2 34.5C262.7 32 300.3 25 337.8 22C375.3 19 412.7 20 450.2 23.2C487.7 26.3 525.3 31.7 562.8 34C600.3 36.3 637.7 35.7 675.2 31.8C712.7 28 750.3 21 787.8 23.2C825.3 25.3 862.7 36.7 881.3 42.3L900 48L900 0L881.3 0C862.7 0 825.3 0 787.8 0C750.3 0 712.7 0 675.2 0C637.7 0 600.3 0 562.8 0C525.3 0 487.7 0 450.2 0C412.7 0 375.3 0 337.8 0C300.3 0 262.7 0 225.2 0C187.7 0 150.3 0 112.8 0C75.3 0 37.7 0 18.8 0L0 0Z" fill="#080401" stroke-linecap="round" stroke-linejoin="miter"></path></svg>